<?xml version="1.0" standalone="no"?>
<!DOCTYPE svg PUBLIC "-//W3C//DTD SVG 20010904//EN"
 "http://www.w3.org/TR/2001/REC-SVG-20010904/DTD/svg10.dtd">
<svg version="1.0" xmlns="http://www.w3.org/2000/svg"
 width="500.000000pt" height="535.000000pt" viewBox="0 0 500.000000 535.000000"
 preserveAspectRatio="xMidYMid meet">

<g transform="translate(0.000000,535.000000) scale(0.100000,-0.100000)"
fill="#3CB9DA" stroke="none">
<path d="M4682 5032 c-17 -26 -47 -63 -65 -82 -18 -19 -55 -63 -82 -98 -99
-125 -117 -148 -159 -192 -23 -25 -51 -58 -62 -75 -46 -74 -238 -263 -274
-271 -14 -3 -43 -12 -65 -20 -23 -8 -48 -14 -57 -14 -9 0 -29 -7 -44 -15 -16
-8 -41 -15 -56 -15 -15 0 -30 -4 -33 -10 -3 -5 -18 -10 -33 -10 -15 0 -40 -7
-56 -15 -15 -8 -43 -15 -61 -15 -18 0 -38 -7 -45 -15 -7 -8 -24 -15 -39 -15
-38 0 -119 -33 -136 -56 -8 -10 -15 -35 -15 -54 0 -19 -7 -48 -15 -64 -8 -15
-15 -49 -15 -75 0 -26 -7 -56 -15 -67 -8 -10 -15 -41 -15 -67 0 -27 -4 -57
-10 -67 -14 -27 20 -36 59 -16 17 9 40 16 51 16 24 0 115 26 142 41 10 5 30 9
45 9 16 0 41 7 57 15 15 8 40 15 55 15 15 0 32 5 38 11 11 11 61 25 133 36 19
3 44 12 55 19 23 17 111 19 121 3 3 -6 1 -16 -5 -22 -6 -6 -11 -32 -11 -59 0
-39 -5 -52 -27 -73 -15 -14 -37 -25 -49 -25 -12 0 -35 -7 -50 -15 -16 -8 -41
-15 -56 -15 -15 0 -30 -4 -33 -10 -3 -5 -21 -10 -38 -10 -18 -1 -43 -7 -57
-15 -14 -8 -37 -14 -52 -15 -15 0 -30 -4 -33 -10 -3 -5 -28 -12 -56 -16 -27
-4 -52 -11 -55 -15 -3 -5 -20 -9 -37 -9 -18 0 -41 -7 -51 -15 -11 -8 -32 -15
-46 -15 -14 0 -30 -4 -36 -10 -5 -5 -27 -13 -49 -18 -33 -6 -44 -15 -62 -47
-12 -22 -22 -59 -22 -82 -1 -23 -5 -45 -11 -48 -5 -3 -10 -31 -10 -61 0 -52 1
-54 28 -54 15 0 36 7 46 15 11 8 37 15 57 15 21 0 40 4 43 9 4 5 24 12 46 16
22 4 42 11 46 16 3 5 20 9 37 9 18 1 43 7 57 15 14 8 35 14 48 15 12 0 30 4
40 9 19 10 93 30 137 38 17 2 44 11 62 19 17 8 45 14 61 14 17 0 34 5 37 10 4
6 11 8 16 5 12 -8 12 -112 -1 -120 -5 -3 -10 -14 -10 -24 0 -25 -42 -61 -71
-61 -13 -1 -35 -7 -49 -15 -14 -8 -42 -14 -62 -15 -20 0 -40 -4 -43 -10 -3 -5
-18 -10 -33 -10 -15 -1 -38 -7 -52 -15 -14 -8 -38 -15 -55 -15 -16 0 -39 -7
-49 -15 -11 -8 -34 -15 -52 -15 -18 0 -35 -4 -39 -9 -3 -6 -26 -13 -50 -17
-25 -3 -48 -10 -51 -15 -3 -5 -20 -9 -38 -9 -18 0 -41 -7 -52 -15 -10 -8 -33
-15 -51 -15 -17 0 -34 -4 -37 -9 -3 -4 -24 -11 -46 -15 -23 -3 -49 -10 -58
-15 -9 -5 -24 -12 -32 -15 -48 -19 -105 -78 -244 -250 -27 -34 -66 -79 -87
-101 -22 -23 -39 -44 -39 -48 0 -4 -17 -26 -37 -49 -21 -22 -48 -52 -61 -65
-13 -14 -28 -37 -33 -50 -12 -33 -12 -2200 0 -2208 6 -3 16 6 23 19 30 56 281
456 289 462 5 3 9 14 9 24 0 10 4 20 8 22 4 2 30 39 57 83 27 44 53 82 57 83
5 2 8 12 8 21 0 10 11 28 24 40 13 13 27 34 30 47 4 13 11 24 16 24 6 0 10 9
10 19 0 11 4 22 9 26 6 3 33 43 61 88 28 45 56 91 63 102 6 11 29 46 50 78 20
32 37 61 37 64 0 3 10 19 23 36 12 18 30 48 41 67 10 19 29 49 42 67 13 17 24
35 24 38 0 4 10 21 23 38 25 35 38 57 62 104 9 18 23 37 31 44 8 6 14 18 14
25 0 14 60 107 73 112 4 2 7 8 7 14 0 6 10 25 23 42 12 17 33 53 47 79 14 27
33 57 43 67 9 11 17 23 17 28 0 4 20 39 45 76 25 38 45 72 45 76 0 4 6 13 14
19 8 7 21 26 30 44 20 40 35 63 63 104 13 17 23 35 23 38 0 3 11 21 25 39 14
18 25 36 25 39 0 3 17 32 38 64 21 32 42 65 45 73 4 8 21 35 37 60 16 25 35
57 41 73 6 15 14 27 17 27 4 0 16 18 26 40 11 22 23 40 27 40 4 0 11 10 14 23
4 12 18 36 31 54 13 17 24 35 24 39 0 4 6 15 14 23 33 38 60 100 68 156 21
173 29 218 38 235 6 10 10 42 10 70 0 28 5 61 12 73 6 12 15 54 19 92 17 148
29 227 39 245 6 10 10 42 10 70 0 29 6 66 14 83 8 18 17 59 20 92 2 33 12 101
21 150 9 50 19 124 24 165 4 41 13 85 19 97 7 12 12 44 12 72 0 27 5 62 11 78
21 54 47 293 32 293 -4 0 -23 -21 -41 -48z m-832 -2190 c0 -10 -17 -36 -37
-58 -21 -22 -64 -73 -96 -112 -72 -88 -194 -212 -208 -212 -6 0 -25 -10 -42
-23 -18 -12 -41 -27 -52 -34 -11 -7 -98 -61 -193 -120 -95 -59 -189 -117 -210
-128 -20 -11 -41 -26 -45 -32 -4 -7 -15 -13 -23 -13 -8 0 -24 -9 -36 -20 -46
-42 -85 -13 -50 37 10 15 35 62 55 103 20 41 45 91 55 110 11 19 35 67 53 105
19 39 37 72 42 73 4 2 7 12 7 22 0 9 7 23 15 30 8 7 15 21 15 32 0 10 6 21 14
24 8 3 16 14 19 24 3 12 18 21 41 25 20 4 36 11 36 16 0 5 15 9 33 9 17 1 43
7 57 15 14 8 37 14 52 15 15 0 29 4 33 9 3 6 26 13 50 17 25 3 48 10 51 15 3
5 20 9 38 9 18 0 41 7 52 15 10 8 33 15 49 15 17 0 41 7 55 15 14 8 39 14 57
15 17 0 35 5 38 10 3 6 22 10 41 10 26 0 34 -4 34 -18z"/>
<path d="M3322 4928 c-17 -24 -49 -62 -72 -86 -22 -24 -40 -46 -40 -51 0 -4
-30 -42 -67 -83 -65 -72 -135 -156 -196 -236 -58 -75 -133 -154 -162 -170 -20
-11 -63 -19 -125 -22 l-95 -5 0 -170 0 -170 64 -3 c74 -3 102 -22 83 -53 -7
-10 -12 -30 -12 -43 0 -13 -7 -37 -15 -52 -8 -16 -15 -41 -15 -56 0 -15 -4
-30 -10 -33 -5 -3 -10 -19 -10 -34 0 -15 -7 -36 -15 -47 -8 -10 -15 -31 -15
-45 0 -15 -7 -40 -15 -55 -8 -16 -15 -40 -15 -54 0 -15 -6 -32 -12 -38 -16
-16 -25 -729 -10 -744 11 -11 65 44 129 128 21 27 58 71 83 97 25 27 50 57 55
67 6 9 35 46 65 80 30 35 62 75 71 89 9 14 23 32 32 40 10 7 17 28 17 45 0 18
5 37 12 44 7 7 16 38 20 70 13 105 28 183 38 202 5 10 10 40 10 67 1 26 7 59
15 73 8 14 14 45 15 70 0 26 4 50 9 55 6 6 12 33 14 61 3 28 10 60 16 72 6 11
11 41 11 65 0 25 7 58 15 73 8 16 15 47 15 69 0 22 7 58 15 80 8 22 14 59 15
82 0 23 5 45 10 48 6 3 10 30 10 59 0 30 6 60 15 72 8 11 14 42 15 75 0 30 5
60 10 65 6 6 15 42 21 80 5 38 14 94 18 124 5 30 14 70 22 87 22 54 -2 61 -39
11z"/>
<path d="M2090 4268 c-14 -5 -63 -14 -110 -19 -126 -12 -217 -27 -239 -39 -11
-5 -37 -10 -58 -10 -22 0 -44 -5 -50 -11 -6 -6 -29 -15 -50 -20 -82 -17 -128
-31 -137 -40 -6 -5 -19 -9 -31 -9 -11 0 -29 -6 -40 -13 -11 -7 -38 -19 -60
-26 -67 -23 -129 -53 -143 -70 -7 -9 -10 -29 -7 -46 3 -16 10 -52 15 -80 15
-84 27 -129 42 -157 15 -28 77 -88 90 -88 8 0 95 -58 116 -78 7 -6 23 -17 35
-23 25 -13 190 -121 197 -129 8 -9 100 -70 106 -70 8 0 125 -82 154 -107 13
-13 29 -23 33 -23 5 0 23 -10 40 -23 18 -12 40 -27 49 -32 44 -26 237 -157
272 -185 22 -17 48 -30 60 -28 20 3 21 9 24 193 1 105 0 200 -3 212 -7 29 -48
73 -67 73 -9 0 -21 7 -29 16 -7 8 -26 22 -42 31 -17 8 -42 26 -56 39 -14 13
-30 24 -35 24 -5 0 -24 11 -42 25 -18 14 -35 25 -38 25 -4 0 -179 123 -211
148 -5 4 -36 25 -68 46 -42 28 -55 41 -45 47 7 5 148 9 313 9 221 0 304 3 313
12 9 9 12 73 12 225 l0 213 -142 -1 c-79 0 -154 -5 -168 -11z"/>
<path d="M338 4072 c-22 -4 -23 -28 -3 -48 9 -9 15 -34 15 -60 0 -24 4 -52 10
-62 5 -9 12 -43 15 -74 4 -32 11 -60 16 -63 5 -4 9 -30 9 -58 0 -30 7 -60 15
-71 8 -11 15 -41 15 -66 0 -25 5 -51 11 -57 6 -6 13 -38 16 -72 3 -34 10 -64
14 -67 5 -3 9 -22 9 -43 0 -21 7 -55 15 -74 8 -20 15 -56 15 -81 0 -25 4 -47
9 -50 5 -3 12 -33 16 -66 4 -33 11 -63 16 -66 5 -3 9 -25 9 -50 0 -56 15 -72
175 -188 66 -48 121 -92 123 -97 2 -5 8 -9 13 -9 5 0 53 -33 106 -72 52 -40
104 -78 115 -84 11 -6 29 -20 41 -30 60 -52 119 -84 156 -84 21 0 55 -7 74
-15 20 -8 56 -15 81 -15 25 0 48 -4 51 -10 3 -6 27 -10 53 -10 26 0 60 -7 76
-15 15 -8 50 -15 76 -15 26 0 61 -7 76 -15 16 -8 52 -15 79 -15 28 0 56 -5 62
-11 6 -6 23 -9 39 -7 l29 3 -3 70 c-2 39 -10 85 -18 104 -8 18 -14 56 -14 83
0 27 -5 58 -11 69 -5 11 -13 51 -16 90 -3 38 -10 72 -14 75 -5 3 -9 32 -9 65
0 33 -7 76 -15 96 -8 19 -15 55 -15 80 0 65 -31 118 -93 157 -29 19 -59 41
-66 50 -7 9 -22 16 -31 16 -10 0 -20 3 -22 8 -1 4 -27 23 -55 42 -29 19 -53
38 -53 43 0 4 -6 7 -14 7 -7 0 -47 25 -89 55 -41 30 -78 55 -82 55 -4 0 -24
13 -44 29 -20 15 -40 30 -46 32 -18 7 -130 84 -133 92 -2 4 -10 7 -17 7 -19 0
-55 54 -55 83 0 13 -7 41 -15 60 -8 20 -15 56 -15 81 0 25 -4 48 -10 51 -5 3
-10 24 -10 47 0 53 -27 107 -59 120 -14 6 -87 14 -161 18 -74 4 -173 13 -220
19 -96 11 -216 18 -242 13z m426 -487 c18 -14 36 -25 39 -25 8 0 95 -59 121
-82 11 -10 38 -27 60 -39 23 -11 64 -38 93 -60 29 -21 57 -39 63 -39 5 0 10
-4 10 -8 0 -5 17 -18 38 -29 20 -12 46 -30 57 -40 11 -10 37 -27 58 -37 20
-11 37 -23 37 -27 0 -4 10 -11 22 -15 12 -3 33 -17 47 -30 14 -13 29 -24 33
-24 12 0 101 -62 136 -94 17 -16 32 -38 32 -47 0 -10 5 -21 10 -24 11 -7 14
-58 4 -67 -7 -8 -64 21 -94 49 -14 13 -29 23 -34 23 -5 0 -24 11 -42 25 -18
14 -35 25 -38 25 -5 0 -96 60 -106 70 -16 16 -148 101 -185 119 -11 5 -38 25
-60 45 -22 20 -44 36 -48 36 -5 0 -23 11 -41 25 -18 14 -36 25 -41 25 -4 0
-24 14 -45 30 -21 17 -43 30 -49 30 -6 0 -11 3 -11 8 0 4 -24 22 -54 40 -73
47 -88 75 -77 155 2 15 33 6 65 -18z m74 -375 c23 -16 44 -30 47 -30 3 0 33
-19 66 -42 129 -90 171 -118 176 -118 3 0 26 -15 52 -34 83 -61 182 -126 190
-126 5 0 19 -10 33 -22 14 -13 40 -32 59 -42 19 -11 36 -22 39 -26 3 -3 39
-28 81 -55 79 -52 100 -80 103 -138 1 -40 -20 -46 -66 -15 -19 13 -68 43 -108
68 -39 25 -89 59 -111 75 -21 17 -67 48 -101 70 -35 22 -65 42 -68 45 -9 10
-129 90 -134 90 -5 0 -98 61 -106 69 -12 13 -101 71 -110 71 -5 0 -28 19 -52
43 -46 44 -85 132 -64 141 22 9 34 5 74 -24z"/>
<path d="M2044 2938 c4 -13 10 -59 13 -103 3 -44 10 -89 16 -99 9 -19 18 -88
36 -287 5 -53 13 -105 19 -115 5 -11 13 -77 16 -149 3 -71 9 -195 13 -275 5
-80 6 -263 3 -408 -6 -306 -22 -275 135 -270 l100 3 0 747 0 748 -27 25 c-15
14 -33 25 -41 25 -7 0 -24 11 -37 25 -13 14 -29 25 -35 25 -7 0 -25 11 -41 25
-16 14 -38 28 -48 31 -11 4 -29 15 -40 26 -19 17 -72 48 -84 48 -2 0 -1 -10 2
-22z"/>
<path d="M4360 2789 c0 -6 -10 -25 -22 -42 -26 -36 -44 -65 -54 -87 -4 -8 -17
-28 -29 -45 -12 -16 -25 -40 -29 -52 -4 -13 -11 -23 -14 -23 -4 0 -16 -17 -27
-37 -11 -21 -26 -44 -32 -51 -7 -7 -13 -19 -13 -26 0 -7 -11 -23 -25 -36 -14
-13 -25 -30 -25 -37 0 -8 -11 -29 -25 -47 -14 -18 -25 -38 -25 -44 0 -7 -4
-12 -10 -12 -5 0 -16 -15 -23 -32 -8 -18 -21 -39 -30 -47 -10 -7 -17 -21 -17
-31 0 -10 -7 -23 -15 -30 -8 -7 -15 -17 -15 -22 0 -8 -8 -20 -37 -53 -7 -7
-13 -18 -13 -24 0 -5 -17 -36 -37 -68 -21 -32 -43 -67 -50 -78 -6 -11 -37 -60
-67 -108 -31 -49 -56 -92 -56 -97 0 -5 -6 -15 -13 -22 -25 -27 -101 -147 -120
-190 -6 -16 -14 -28 -18 -28 -4 0 -17 -20 -29 -45 -12 -25 -26 -45 -31 -45 -5
0 -9 -9 -9 -20 0 -10 -6 -23 -13 -27 -7 -4 -21 -24 -30 -43 -17 -34 -30 -55
-121 -200 -23 -36 -46 -74 -53 -85 -7 -11 -54 -87 -105 -168 -51 -82 -104
-168 -117 -190 -13 -23 -34 -56 -47 -74 -13 -17 -24 -35 -24 -39 0 -4 -11 -22
-25 -40 -38 -50 -32 -77 13 -55 9 4 33 15 52 23 19 9 59 27 88 42 30 14 60 26
67 26 7 0 26 6 42 14 15 8 55 27 88 41 33 15 73 33 88 41 16 8 37 14 48 14 10
0 19 5 19 10 0 6 7 10 15 10 14 0 76 24 105 41 8 5 22 12 30 15 8 3 24 10 35
14 18 8 84 36 140 60 11 4 46 20 78 34 32 14 62 26 68 26 6 0 23 6 37 14 15 8
49 24 76 36 52 23 85 54 86 81 0 9 7 30 15 45 9 17 15 56 15 96 0 37 5 70 10
73 6 3 10 34 10 68 1 34 7 80 15 102 8 22 15 67 15 100 0 36 6 69 14 81 8 11
17 51 19 89 11 135 26 248 37 259 5 5 10 39 10 74 0 35 5 73 12 85 6 12 15 56
19 97 17 162 29 241 39 260 5 10 10 44 10 75 0 31 6 66 12 78 7 12 16 56 19
97 4 41 11 93 16 115 5 22 7 48 5 58 -4 19 -22 24 -22 6z"/>
<path d="M704 2423 c10 -248 25 -479 35 -523 6 -25 10 -99 11 -165 0 -66 5
-136 11 -155 6 -19 15 -111 20 -205 16 -301 11 -281 82 -353 34 -35 87 -82
117 -105 30 -22 75 -60 100 -83 25 -23 67 -59 94 -79 27 -21 67 -55 90 -76 22
-22 45 -39 51 -39 6 0 22 -11 35 -25 13 -14 31 -25 41 -25 17 0 18 30 19 553
0 303 3 575 6 602 5 40 2 59 -16 92 -23 45 -29 50 -166 148 -51 36 -97 71
-103 78 -6 8 -18 42 -26 78 -9 35 -20 72 -25 81 -6 10 -10 28 -10 41 0 15 -14
36 -37 56 -43 37 -116 90 -146 108 -12 6 -33 23 -48 37 -15 14 -31 26 -36 26
-4 0 -26 14 -47 30 -22 17 -44 30 -49 30 -5 0 -6 -55 -3 -127z"/>
<path d="M1945 2036 c-16 -6 -57 -25 -90 -42 -33 -17 -80 -41 -105 -53 -25
-12 -53 -27 -62 -32 -10 -5 -23 -9 -30 -9 -7 0 -30 -15 -51 -33 -30 -25 -41
-43 -47 -77 -4 -25 -7 -339 -6 -698 l1 -654 35 -29 c19 -17 64 -55 99 -85 72
-61 94 -65 99 -17 2 17 10 37 18 43 8 7 14 22 14 34 0 11 12 44 25 71 14 28
25 60 25 71 0 12 7 27 15 34 8 7 15 25 15 41 0 15 5 31 10 34 6 3 10 16 10 29
0 12 7 31 15 42 8 10 15 27 15 38 0 30 40 86 60 86 10 0 22 5 26 11 5 9 51 10
165 5 108 -5 165 -4 179 4 18 10 20 20 20 115 l0 105 -184 0 c-180 0 -185 1
-200 22 -14 20 -16 83 -16 490 0 368 -3 468 -12 467 -7 -1 -26 -7 -43 -13z"/>
<path d="M2120 680 c0 -5 -6 -10 -13 -10 -12 0 -26 -26 -64 -125 -8 -22 -19
-49 -23 -60 -5 -11 -18 -47 -29 -80 -19 -60 -30 -88 -57 -152 -8 -17 -14 -38
-14 -46 0 -9 -5 -19 -10 -22 -32 -19 23 -25 246 -25 l244 0 0 253 c0 183 -3
256 -12 265 -15 15 -268 17 -268 2z"/>
</g>
</svg>
